<svg xmlns="http://www.w3.org/2000/svg" viewBox="0 0 512 512">
  <defs>
    <linearGradient id="grad1" x1="0%" y1="0%" x2="100%" y2="100%">
      <stop offset="0%" style="stop-color:#4F46E5;stop-opacity:1" />
      <stop offset="100%" style="stop-color:#8B5CF6;stop-opacity:1" />
    </linearGradient>
  </defs>
  <rect width="512" height="512" rx="110" fill="url(#grad1)"/>
  <svg x="161" y="129" width="190" height="254" viewBox="0 0 325 435">
    <path fill="white" d="M226.8,197.6l-49.1,39.7h144.2v43.9h-187c-12.5,9.4-19.9,20.9-19.9,35.5c0,25.1,19.9,38.7,55.4,38.7   c30.3,0,56.4-14.6,77.3-44.9l57.5,38.7c-31.3,48.1-87.8,72.1-141.1,72.1c-70,0-122.2-33.4-122.2-88.8c0-17.8,6.3-36.6,18.8-51.2   H3.2v-43.9h91.9l50.2-39.7H3.2v-43.9h186c13.6-12.5,19.9-24,19.9-37.6c0-21.9-19.9-37.6-50.2-37.6c-29.3,0-54.3,16.7-72.1,44.9   L31.4,85.8c30.3-48.1,79.4-72.1,132.7-72.1c72.1,0,119.1,37.6,119.1,88.8c0,18.8-6.3,37.6-16.7,51.2h55.4v43.9H226.8z"/>
  </svg>
</svg>
